<?xml version="1.0" standalone="no"?>
<!DOCTYPE svg PUBLIC "-//W3C//DTD SVG 20010904//EN"
 "http://www.w3.org/TR/2001/REC-SVG-20010904/DTD/svg10.dtd">
<svg version="1.0" xmlns="http://www.w3.org/2000/svg"
 width="700.000000pt" height="700.000000pt" viewBox="0 0 700.000000 700.000000"
 preserveAspectRatio="xMidYMid meet">
<metadata>
Created by potrace 1.11, written by Peter Selinger 2001-2013
</metadata>
<g transform="translate(0.000000,700.000000) scale(0.100000,-0.100000)"
fill="#000000" stroke="none">
<path d="M1629 6375 c-4 -11 -53 -162 -109 -335 -56 -173 -105 -326 -111 -340
-5 -14 -11 -34 -13 -45 -2 -11 -13 -45 -24 -75 -20 -54 -151 -458 -232 -715
-23 -71 -45 -139 -50 -150 -5 -11 -22 -63 -38 -115 -34 -107 -111 -346 -263
-810 -56 -173 -103 -319 -105 -325 -2 -13 -103 -323 -160 -494 -25 -73 -44
-134 -42 -135 2 -1 99 -72 216 -157 117 -85 242 -174 276 -199 35 -25 150
-108 256 -185 105 -77 219 -160 253 -184 34 -25 103 -75 152 -111 159 -117
925 -673 991 -720 34 -25 242 -175 460 -335 219 -159 403 -293 410 -297 7 -5
44 16 90 50 117 87 361 264 394 287 34 24 368 267 425 310 65 48 862 628 895
650 33 23 250 181 265 193 6 4 55 40 110 80 108 78 527 382 760 553 39 28 76
54 83 58 11 6 -2 56 -61 237 -42 126 -101 308 -132 404 -31 96 -72 220 -90
275 -18 55 -67 208 -109 340 -42 132 -80 249 -85 260 -4 11 -17 49 -28 85 -27
83 -239 737 -263 810 -10 30 -66 204 -125 385 -59 182 -139 429 -178 549 l-72
220 -1869 0 c-1860 1 -1869 1 -1877 -19z"/>
</g>
</svg>
