<?xml version="1.0" encoding="utf-8"?>
<!-- Generator: Adobe Illustrator 23.1.1, SVG Export Plug-In . SVG Version: 6.00 Build 0)  -->
<svg version="1.1" id="Layer_1" xmlns="http://www.w3.org/2000/svg" xmlns:xlink="http://www.w3.org/1999/xlink" x="0px" y="0px"
	 viewBox="0 0 128 128" style="enable-background:new 0 0 128 128;" xml:space="preserve">
<style type="text/css">
	.st0{fill:url(#SVGID_1_);}
	.st1{fill:#82CBD0;}
	.st2{fill:#7BB1B6;}
	.st3{fill:#C4E4E7;}
	.st4{fill:url(#SVGID_2_);}
	.st5{fill:#8DC1CA;}
</style>
<g>
	<g>
		<linearGradient id="SVGID_1_" gradientUnits="userSpaceOnUse" x1="8.7456" y1="63.6631" x2="119.4646" y2="63.6631">
			<stop  offset="0" style="stop-color:#50BDC4"/>
			<stop  offset="1" style="stop-color:#135E5F"/>
		</linearGradient>
		<polygon class="st0" points="64.1,116.3 119.5,76.1 98.3,11 29.9,11 8.7,76.1 		"/>
		<g>
			<polygon class="st1" points="41.6,27.2 86,28 34.9,17.9 27.9,69.9 49.8,80.2 38.8,66.3 			"/>
			<polygon class="st2" points="112.5,73.8 86,28 94.8,68.1 64.1,86.9 49.8,80.2 64.1,98.4 			"/>
			<polygon class="st3" points="94.8,68.1 86,28 41.6,27.2 38.8,66.3 49.8,80.2 64.1,86.9 			"/>
		</g>
		<linearGradient id="SVGID_2_" gradientUnits="userSpaceOnUse" x1="8.7457" y1="63.663" x2="119.4642" y2="63.663">
			<stop  offset="0" style="stop-color:#82CBD0"/>
			<stop  offset="1" style="stop-color:#7AA9B0"/>
		</linearGradient>
		<path class="st4" d="M119.5,76.1l-0.3-0.8l-36.9-12l-6.5-20.1l22.8-31.4L98.3,11l0,0h-0.9L74.8,42.2H53.4L30.8,11h-0.9l-0.3,0.8
			l22.8,31.4l-6.5,20.1L9,75.3l-0.3,0.8v0l0.7,0.5l37.2-12.1l16.7,12.1v39.1l0.7,0.5l0.7-0.5V76.7l16.7-12.1l37.2,12.1L119.5,76.1
			L119.5,76.1z M53.4,44.6L63,57.7l-15.4,5L53.4,44.6z M63.4,74.9L48.4,64l15-4.9V74.9z M64.1,56.9l-9.7-13.3h19.4L64.1,56.9z
			 M64.8,74.9V59.1l15,4.9L64.8,74.9z M65.3,57.7l9.5-13.1l5.9,18.1L65.3,57.7z"/>
		<path class="st5" d="M75.8,43.2l10.6-14.6L86,28l-0.8-0.2L74.8,42.2H53.4L35.9,18.1l-1-0.2l-0.1,1l17.7,24.3l-6.5,20.1L28,69.1
			l-0.1,0.8l0.9,0.4l17.9-5.8l16.7,12.1v20.8l0.7,0.9l0.7-0.4V76.7l16.7-12.1l30.1,9.8l0.9-0.4l-0.5-0.9l-29.6-9.6L75.8,43.2z
			 M53.4,44.6L63,57.7l-15.4,5L53.4,44.6z M63.4,74.9L48.4,64l15-4.9V74.9z M64.1,56.9l-9.7-13.3h19.4L64.1,56.9z M64.8,74.9V59.1
			l15,4.9L64.8,74.9z M65.3,57.7l9.5-13.1l5.9,18.1L65.3,57.7z"/>
	</g>
</g>
</svg>
