<?xml version="1.0" encoding="utf-8"?>
<!-- Generator: Adobe Illustrator 23.1.1, SVG Export Plug-In . SVG Version: 6.00 Build 0)  -->
<svg version="1.1" id="Layer_1" xmlns="http://www.w3.org/2000/svg" xmlns:xlink="http://www.w3.org/1999/xlink" x="0px" y="0px"
	 viewBox="0 0 128 128" style="enable-background:new 0 0 128 128;" xml:space="preserve">
<style type="text/css">
	.st0{fill:url(#SVGID_1_);}
	.st1{fill:url(#SVGID_2_);}
	.st2{fill:url(#SVGID_3_);}
	.st3{fill:#F9CDDB;}
	.st4{fill:#EA99B3;}
	.st5{fill:url(#SVGID_4_);}
</style>
<g>
	<linearGradient id="SVGID_1_" gradientUnits="userSpaceOnUse" x1="8.7895" y1="63.663" x2="119.4206" y2="63.663">
		<stop  offset="0" style="stop-color:#EA4B90"/>
		<stop  offset="1" style="stop-color:#8A2E88"/>
	</linearGradient>
	<polygon class="st0" points="64.1,116.3 119.4,76.1 98.3,11.1 29.9,11.1 8.8,76.1 	"/>
	<linearGradient id="SVGID_2_" gradientUnits="userSpaceOnUse" x1="49.7727" y1="63.176" x2="112.4395" y2="63.176">
		<stop  offset="0" style="stop-color:#E3AABF"/>
		<stop  offset="1" style="stop-color:#C8759B"/>
	</linearGradient>
	<polygon class="st1" points="112.4,73.8 86,28 94.8,68.1 64.1,86.9 49.8,80.2 64.1,98.3 	"/>
	<linearGradient id="SVGID_3_" gradientUnits="userSpaceOnUse" x1="8.7896" y1="63.663" x2="119.4202" y2="63.663">
		<stop  offset="0" style="stop-color:#F3A0C2"/>
		<stop  offset="1" style="stop-color:#A96CAB"/>
	</linearGradient>
	<path class="st2" d="M119.4,76.1l-0.3-0.8l-36.8-12l-6.5-20.1l22.8-31.3l-0.3-0.8l0,0h-0.9L74.8,42.2H53.4L30.8,11.1h-0.9l-0.3,0.8
		l22.8,31.3l-6.5,20.1l-36.8,12l-0.3,0.8l0,0l0.7,0.5l37.2-12.1l16.7,12.1v39.1l0.7,0.5l0.7-0.5V76.6l16.7-12.1l37.2,12.1
		L119.4,76.1L119.4,76.1z M53.4,44.6L63,57.8l-15.4,5L53.4,44.6z M63.4,74.9L48.4,64l15-4.9V74.9z M64.1,56.9l-9.7-13.3h19.3
		L64.1,56.9z M64.8,74.9V59.1l15,4.9L64.8,74.9z M65.3,57.8l9.5-13.1l5.9,18.1L65.3,57.8z"/>
	<polygon class="st3" points="94.8,68.1 86,28 41.7,27.2 38.9,66.3 49.8,80.2 64.1,86.9 	"/>
	<polygon class="st4" points="41.7,27.2 86,28 34.9,17.9 27.9,69.9 49.8,80.2 38.9,66.3 	"/>
	<linearGradient id="SVGID_4_" gradientUnits="userSpaceOnUse" x1="27.9102" y1="52.4066" x2="94.7964" y2="52.4066">
		<stop  offset="0" style="stop-color:#E79CC4"/>
		<stop  offset="1" style="stop-color:#CD8EBE"/>
	</linearGradient>
	<path class="st5" d="M64.8,76.6l16.7-12.1L94,68.6l0.8-0.5l-0.2-0.8l-12.3-4l-6.5-20.1l10.4-14.3L86,28l-0.8-0.2L74.8,42.2H53.4
		L35.9,18.1l-1-0.2l-0.1,1l17.6,24.3l-6.5,20.1L28,69.1l-0.1,0.8l0.9,0.4l17.9-5.8l16.7,12.1v9.9l0.7,0.3l0.7-0.4V76.6z M64.8,74.9
		V59.1l15,4.9L64.8,74.9z M80.7,62.8l-15.4-5l9.5-13.1L80.7,62.8z M53.4,44.6L63,57.8l-15.4,5L53.4,44.6z M63.4,74.9L48.4,64l15-4.9
		V74.9z M54.4,43.6h19.3l-9.7,13.3L54.4,43.6z"/>
</g>
</svg>
